<?xml version="1.0" standalone="no"?><!DOCTYPE svg PUBLIC "-//W3C//DTD SVG 1.1//EN" "http://www.w3.org/Graphics/SVG/1.1/DTD/svg11.dtd"><svg t="1519139219830" class="icon" style="" viewBox="0 0 1024 1024" version="1.1" xmlns="http://www.w3.org/2000/svg" p-id="19230" xmlns:xlink="http://www.w3.org/1999/xlink" width="16" height="16"><defs><style type="text/css"></style></defs><path d="M261.2 165.4h607.6v554.8H261.2z" fill="#91B4FF" p-id="19231"></path><path d="M153.2 441.6c-14.3 0-25.9-11.6-25.9-25.9v-43.2c0-14.3 11.6-25.9 25.9-25.9 14.3 0 25.9 11.6 25.9 25.9v43.2c0 14.3-11.6 25.9-25.9 25.9z" fill="#3778FF" p-id="19232"></path><path d="M869.7 746H153.2c-14.3 0-25.9-11.6-25.9-25.9V491.3c0-14.3 11.6-25.9 25.9-25.9 14.3 0 25.9 11.6 25.9 25.9v203h664.7v-503H179.1v97.1c0 14.3-11.6 25.9-25.9 25.9-14.3 0-25.9-11.6-25.9-25.9v-123c0-14.3 11.6-25.9 25.9-25.9h716.5c14.3 0 25.9 11.6 25.9 25.9v554.8c0 14.3-11.6 25.8-25.9 25.8z" fill="#3778FF" p-id="19233"></path><path d="M855 621.5H153.2c-14.3 0-25.9-11.6-25.9-25.9 0-14.3 11.6-25.9 25.9-25.9H855c14.3 0 25.9 11.6 25.9 25.9 0 14.3-11.6 25.9-25.9 25.9zM513.1 851c-14.3 0-25.9-11.6-25.9-25.9v-105c0-14.3 11.6-25.9 25.9-25.9 14.3 0 25.9 11.6 25.9 25.9v105c0 14.3-11.6 25.9-25.9 25.9z" fill="#3778FF" p-id="19234"></path><path d="M933.4 884H89.1c-14.3 0-25.9-11.6-25.9-25.9 0-14.3 11.6-25.9 25.9-25.9h844.3c14.3 0 25.9 11.6 25.9 25.9 0 14.3-11.6 25.9-25.9 25.9z" fill="#3778FF" p-id="19235"></path></svg>