<?xml version="1.0" standalone="no"?><!DOCTYPE svg PUBLIC "-//W3C//DTD SVG 1.1//EN" "http://www.w3.org/Graphics/SVG/1.1/DTD/svg11.dtd"><svg t="1519138899626" class="icon" style="" viewBox="0 0 1024 1024" version="1.1" xmlns="http://www.w3.org/2000/svg" p-id="9012" xmlns:xlink="http://www.w3.org/1999/xlink" width="16" height="16"><defs><style type="text/css"></style></defs><path d="M938.666667 711.111111H334.222222a21.333333 21.333333 0 0 1-20.565333-15.658667L168.647111 170.666667H56.888889a21.333333 21.333333 0 1 1 0-42.666667h128a21.333333 21.333333 0 0 1 20.565333 15.658667L350.464 668.444444H938.666667a21.333333 21.333333 0 0 1 0 42.666667z" fill="#4E8CEE" p-id="9013"></path><path d="M974.222222 199.111111h-668.444444l56.888889 142.222222h554.666666z" fill="#BAD4FF" p-id="9014"></path><path d="M860.444444 611.555556h-440.888888a21.333333 21.333333 0 0 1-20.451556-15.274667l-113.777778-384A21.333333 21.333333 0 0 1 305.777778 184.888889h668.444444a21.376 21.376 0 0 1 20.451556 27.406222l-113.777778 384A21.333333 21.333333 0 0 1 860.444444 611.555556z m-424.96-42.666667h409.031112l101.134222-341.333333H334.350222l101.134222 341.333333z" fill="#4E8CEE" p-id="9015"></path><path d="M465.777778 860.444444m-71.111111 0a71.111111 71.111111 0 1 0 142.222222 0 71.111111 71.111111 0 1 0-142.222222 0Z" fill="#B9CFEB" p-id="9016"></path><path d="M465.777778 952.888889c-50.972444 0-92.444444-41.472-92.444445-92.444445s41.472-92.444444 92.444445-92.444444 92.444444 41.472 92.444444 92.444444-41.472 92.444444-92.444444 92.444445z m0-142.222222c-27.448889 0-49.777778 22.328889-49.777778 49.777777s22.328889 49.777778 49.777778 49.777778 49.777778-22.328889 49.777778-49.777778-22.328889-49.777778-49.777778-49.777777z" fill="#4E8CEE" p-id="9017"></path><path d="M835.555556 860.444444m-71.111112 0a71.111111 71.111111 0 1 0 142.222223 0 71.111111 71.111111 0 1 0-142.222223 0Z" fill="#B9CFEB" p-id="9018"></path><path d="M835.555556 952.888889c-50.972444 0-92.444444-41.472-92.444445-92.444445s41.472-92.444444 92.444445-92.444444 92.444444 41.472 92.444444 92.444444-41.472 92.444444-92.444444 92.444445z m0-142.222222c-27.448889 0-49.777778 22.328889-49.777778 49.777777s22.328889 49.777778 49.777778 49.777778 49.777778-22.328889 49.777777-49.777778-22.328889-49.777778-49.777777-49.777777z" fill="#4E8CEE" p-id="9019"></path></svg>