<?xml version="1.0" standalone="no"?><!DOCTYPE svg PUBLIC "-//W3C//DTD SVG 1.1//EN" "http://www.w3.org/Graphics/SVG/1.1/DTD/svg11.dtd"><svg t="1519139159865" class="icon" style="" viewBox="0 0 1024 1024" version="1.1" xmlns="http://www.w3.org/2000/svg" p-id="18052" xmlns:xlink="http://www.w3.org/1999/xlink" width="16" height="16"><defs><style type="text/css"></style></defs><path d="M476.9536 314.368a36.48 36.48 0 1 1 36.48-36.48 36.48 36.48 0 0 1-36.48 36.48z m0 97.28a24.32 24.32 0 0 1 24.32 24.32v389.12a24.32 24.32 0 0 1-48.64 0v-389.12a24.32 24.32 0 0 1 24.32-24.32zM511.1296 998.4c-134.1696 0-280.6784-30.0544-368.128-119.168a22.7072 22.7072 0 0 1-4.8896-4.6336 2.4064 2.4064 0 0 1-0.256-0.256 23.9104 23.9104 0 0 1-5.12-14.464 24.2432 24.2432 0 0 1 24.1152-24.32 23.6288 23.6288 0 0 1 19.5584 10.88l0.8448-0.6144a431.1552 431.1552 0 0 0 308.3264 129.5872 438.4768 438.4768 0 1 0-409.9072-294.4 25.7536 25.7536 0 0 1 1.9456 20.992 24.1408 24.1408 0 0 1-29.5424 17.2032 23.6544 23.6544 0 0 1-12.8-9.216l-0.256 0.1792c0-0.256-0.1536-0.512-0.256-0.768a23.808 23.808 0 0 1-4.1984-12.6208 482.1248 482.1248 0 0 1-27.4944-159.232c0-268.6208 241.6384-512 508.1344-512A486.4256 486.4256 0 0 1 511.1296 998.4zM103.6032 759.68a26.368 26.368 0 0 1 17.7664 23.3984 24.6784 24.6784 0 0 1-22.7584 24.0384c40.6528-2.4064-36.1216 13.2352-24.5504-30.2592a24.0896 24.0896 0 0 1 29.5424-17.1776z" fill="#48BCF5" p-id="18053"></path><path d="M512.0256 1024a509.6704 509.6704 0 0 1-363.52-152.3712 24.5248 24.5248 0 0 1-5.12-4.8896l-0.3072-0.256a25.0368 25.0368 0 0 1-5.5552-15.36 25.6 25.6 0 0 1 25.6-25.6 25.1648 25.1648 0 0 1 20.7616 11.4432l0.896-0.6656a465.3824 465.3824 0 1 0-107.776-173.3632 27.008 27.008 0 0 1 2.048 22.0928 25.6 25.6 0 0 1-31.36 18.0992 25.1648 25.1648 0 0 1-13.5936-9.7024l-0.2816 0.2048c0-0.256-0.1536-0.5376-0.256-0.8192a25.1392 25.1392 0 0 1-4.4544-13.2864A503.4496 503.4496 0 0 1 0.0256 512a512 512 0 1 1 512 512zM106.7776 745.7536a27.7504 27.7504 0 0 1 18.8416 24.6528 26.112 26.112 0 0 1-24.1408 25.2928c43.136-2.56-38.4 13.9264-26.0352-31.8464a25.6 25.6 0 0 1 31.3344-18.0992zM513.0496 268.8a38.4 38.4 0 1 1 38.4-38.4 38.4 38.4 0 0 1-38.4 38.4z m0 102.4a25.6 25.6 0 0 1 25.6 25.6v409.6a25.6 25.6 0 0 1-51.2 0v-409.6a25.6 25.6 0 0 1 25.6-25.6z" fill="#4076FE" p-id="18054"></path></svg>