<?xml version="1.0" standalone="no"?><!DOCTYPE svg PUBLIC "-//W3C//DTD SVG 1.1//EN" "http://www.w3.org/Graphics/SVG/1.1/DTD/svg11.dtd"><svg t="1519138706330" class="icon" style="" viewBox="0 0 1024 1024" version="1.1" xmlns="http://www.w3.org/2000/svg" p-id="1222" xmlns:xlink="http://www.w3.org/1999/xlink" width="16" height="16"><defs><style type="text/css"></style></defs><path d="M506.684 98.772l-406.077 389.94a6 6 0 0 0-1.219 1.64L508.142 97.701a6.924 6.924 0 0 0-1.458 1.071zM884 512.962L513.421 96.936a7.968 7.968 0 0 0-1.594-0.166c-0.822 0-1.949 0.144-3.319 0.857L139 511.094V923.27l-32.439-1.406c2.499 1.386 5.191 2.135 8.317 2.135H491v-1h-36.247L491 637.061v-0.571c0-25.2 20.246-45.49 45.446-45.49h201.66c25.2 0 45.893 20.289 45.893 45.49V924h125.784c1.916 0 3.737 0 5.43-1H884V512.962z" fill="#53AFFD" p-id="1223"></path><path d="M924.743 495.428l0.011-2.693c0.006-1.577-0.567-2.931-1.705-4.023L517.004 98.772c-1.051-1.009-2.227-1.512-3.257-1.764l409.74 393.521 1.648 423.38c0.57-1.574 0.866-3.263 0.866-5.04V502.272c0-1.797-0.139-3.236-0.47-4.277l-0.788-2.567z" fill="#53AFFD" p-id="1224"></path><path d="M958.787 490.191c-0.613-9.981-4.791-19.202-12.079-26.201L540.703 74.049c-7.76-7.451-18.002-11.555-28.88-11.555s-21.131 4.103-28.891 11.555L76.861 463.989c-8.529 8.19-12.914 19.28-12.288 30.811a48.694 48.694 0 0 0-0.574 7.472v406.596C64 936.182 86.824 958 114.878 958H525V636.49c0-6.3 5.146-11.49 11.446-11.49h201.66c6.3 0 11.893 5.19 11.893 11.49V958h159.784C937.657 958 960 936.182 960 908.868V502.272c0-4.376-0.286-8.354-1.213-12.081zM926 908.868c0 1.777-0.295 3.332-0.866 4.905L925.2 923h-9.986c-1.694 1-3.514 1-5.43 1H784V636.49c0-25.2-20.693-45.49-45.893-45.49h-201.66c-25.2 0-45.446 20.289-45.446 45.49V924H114.878c-3.126 0-6.252-0.749-8.751-2.135L97 921.557V492.242l2.178-1.89c0.274-0.542 0.76-1.098 1.324-1.64l406.129-389.94c0.469-0.45 0.989-0.798 1.485-1.071l0.61-0.573-0.441 0.5c1.371-0.713 2.733-0.857 3.555-0.857 0.42 0 0.983 0.037 1.613 0.166l-1.287-1.446 1.58 1.517c1.03 0.252 2.206 0.755 3.257 1.764l406.046 389.94c1.138 1.092 1.711 2.446 1.705 4.023l-0.011 2.693 0.787 2.567c0.331 1.041 0.47 2.48 0.47 4.277v406.596z" fill="" p-id="1225"></path><path d="M513.746 97.008l-1.579-1.518 1.254 1.446L884 512.962V923h41.2l-0.037-9.227-1.677-423.312z" fill="#1083EA" p-id="1226"></path><path d="M139 511.094L508.516 97.627l0.335-0.5-0.653 0.574L99.206 490.352 97 492.242v429.315l9.351 0.371L139 923.271zM491 923V637.061L454.753 923z" fill="#FFFFFF" p-id="1227"></path></svg>