<?xml version="1.0" encoding="UTF-8" ?>
<!DOCTYPE svg PUBLIC "-//W3C//DTD SVG 1.1//EN" "http://www.w3.org/Graphics/SVG/1.1/DTD/svg11.dtd">
<svg width="518pt" height="512pt" viewBox="0 0 518 512" version="1.1" xmlns="http://www.w3.org/2000/svg">
<g id="#37497dff">
<path fill="#37497d" opacity="1.00" d=" M 112.73 47.48 C 152.03 20.84 198.59 5.07 245.97 2.28 C 287.79 0.10 329.84 9.52 367.70 27.17 C 412.22 48.05 451.04 81.39 477.26 123.09 C 508.64 172.64 521.74 233.04 515.58 291.18 C 513.88 307.29 510.38 323.21 505.36 338.63 L 504.72 338.16 C 504.64 337.63 504.47 336.58 504.39 336.05 C 506.06 329.78 508.30 323.57 509.00 317.10 C 506.34 311.71 501.49 307.84 497.94 303.08 C 496.23 301.17 495.10 298.28 492.29 297.84 C 488.52 303.26 486.17 309.73 481.21 314.26 C 479.18 316.24 476.19 317.29 473.40 316.56 C 470.07 315.66 467.49 313.22 465.10 310.88 C 458.08 303.80 452.17 295.74 445.74 288.13 C 435.21 275.92 425.54 263.00 416.16 249.90 C 407.11 237.17 398.60 224.07 389.30 211.52 C 386.36 207.70 383.45 203.81 379.87 200.57 C 374.31 205.85 372.25 213.51 369.27 220.34 C 367.57 224.10 366.83 228.62 363.63 231.48 C 358.84 233.07 354.58 228.99 350.02 228.88 C 334.95 247.41 327.49 270.83 313.07 289.82 C 305.51 284.34 299.28 277.37 293.01 270.53 C 291.02 271.18 288.84 271.69 287.38 273.32 C 258.76 302.06 238.17 338.09 207.13 364.52 C 198.95 354.07 190.07 343.45 186.62 330.34 C 185.64 327.31 185.64 323.75 183.29 321.35 C 180.77 323.33 178.22 325.28 175.81 327.40 C 175.12 326.68 174.46 325.94 173.85 325.17 C 162.23 308.48 150.97 291.53 138.74 275.27 C 136.95 272.92 135.35 270.36 133.03 268.47 C 117.06 298.87 102.79 330.48 81.97 358.00 C 78.46 362.50 75.08 367.15 71.01 371.17 C 61.56 360.10 52.65 348.53 44.78 336.27 C 43.92 334.80 42.74 333.56 41.24 332.75 C 40.21 334.02 39.40 335.44 38.97 337.03 C 35.76 347.47 30.98 357.32 26.49 367.25 C 26.18 366.90 25.58 366.19 25.27 365.84 C 13.33 337.30 6.04 306.84 3.57 276.01 C 3.66 270.64 2.13 265.38 2.66 259.99 C 2.29 250.47 3.29 241.02 4.19 231.56 C 9.24 178.47 32.31 127.50 68.04 88.00 C 81.86 73.43 96.47 59.30 113.44 48.43 C 113.27 48.19 112.91 47.71 112.73 47.48 Z" />
<path fill="#37497d" opacity="1.00" d=" M 420.45 259.06 C 421.85 258.88 422.38 259.49 422.05 260.88 C 420.67 261.03 420.14 260.42 420.45 259.06 Z" />
<path fill="#37497d" opacity="1.00" d=" M 317.28 288.07 C 319.16 288.61 316.81 291.65 315.43 290.88 C 314.98 289.70 316.20 288.38 317.28 288.07 Z" />
<path fill="#37497d" opacity="1.00" d=" M 412.15 331.25 C 413.65 331.02 415.06 333.36 414.76 334.71 C 413.22 335.02 411.56 332.66 412.15 331.25 Z" />
<path fill="#37497d" opacity="1.00" d=" M 125.10 341.16 C 126.49 340.65 126.97 341.10 126.55 342.51 C 125.15 343.05 124.67 342.60 125.10 341.16 Z" />
<path fill="#37497d" opacity="1.00" d=" M 367.71 362.47 C 370.38 364.41 371.85 367.54 373.29 370.42 C 370.26 369.42 368.53 365.44 367.71 362.47 Z" />
<path fill="#37497d" opacity="1.00" d=" M 202.27 374.06 C 203.50 374.67 203.39 375.34 201.92 376.07 C 200.71 375.46 200.83 374.79 202.27 374.06 Z" />
<path fill="#37497d" opacity="1.00" d=" M 99.23 380.19 C 100.78 380.33 100.32 383.01 98.95 383.16 C 97.22 383.03 97.81 380.34 99.23 380.19 Z" />
<path fill="#37497d" opacity="1.00" d=" M 37.34 393.98 C 37.77 394.05 38.61 394.18 39.03 394.25 C 39.72 395.32 40.43 396.38 41.58 397.01 C 41.65 398.62 41.75 400.24 41.92 401.85 C 40.27 399.30 38.58 396.76 37.34 393.98 Z" />
<path fill="#37497d" opacity="1.00" d=" M 108.46 403.25 C 111.26 402.17 109.63 406.56 107.68 406.18 C 105.62 405.96 107.24 403.47 108.46 403.25 Z" />
<path fill="#37497d" opacity="1.00" d=" M 51.61 416.37 C 51.99 416.14 52.76 415.66 53.14 415.42 C 54.86 417.21 55.72 421.19 58.71 420.67 C 58.04 421.51 57.38 422.35 56.72 423.20 C 54.96 420.96 53.17 418.75 51.61 416.37 Z" />
<path fill="#37497d" opacity="1.00" d=" M 320.32 417.25 C 323.37 415.64 320.48 420.50 320.32 417.25 Z" />
<path fill="#37497d" opacity="1.00" d=" M 71.73 440.06 C 73.70 440.65 75.67 441.27 77.58 442.03 C 76.94 442.25 75.66 442.69 75.02 442.91 C 77.95 443.08 79.65 445.62 81.72 447.33 C 111.20 474.25 148.12 492.49 186.94 501.37 C 197.48 503.95 208.28 505.13 218.90 507.19 C 233.33 507.63 247.74 509.46 262.19 508.32 C 268.40 507.12 274.80 508.31 280.99 506.92 C 326.64 503.02 370.76 486.29 409.02 461.31 C 376.31 483.43 338.90 498.78 299.98 505.61 C 270.66 510.65 240.57 511.40 211.09 507.28 C 164.46 501.17 118.94 482.54 83.50 451.26 C 79.46 447.66 75.29 444.15 71.73 440.06 Z" />
<path fill="#37497d" opacity="1.00" d=" M 183.20 467.13 C 183.97 466.49 186.69 466.85 185.47 468.24 C 184.35 470.11 180.22 468.56 183.20 467.13 Z" />
</g>
<g id="#17003fff">
<path fill="#17003f" opacity="1.00" d=" M 7.77 199.99 C 22.02 138.41 60.31 82.79 112.73 47.48 C 112.91 47.71 113.27 48.19 113.44 48.43 C 96.47 59.30 81.86 73.43 68.04 88.00 C 32.31 127.50 9.24 178.47 4.19 231.56 C 3.29 241.02 2.29 250.47 2.66 259.99 C 2.13 265.38 3.66 270.64 3.57 276.01 C 6.04 306.84 13.33 337.30 25.27 365.84 C 25.58 366.19 26.18 366.90 26.49 367.25 C 30.98 357.32 35.76 347.47 38.97 337.03 C 39.40 335.44 40.21 334.02 41.24 332.75 C 42.74 333.56 43.92 334.80 44.78 336.27 C 52.65 348.53 61.56 360.10 71.01 371.17 C 75.08 367.15 78.46 362.50 81.97 358.00 C 102.79 330.48 117.06 298.87 133.03 268.47 C 135.35 270.36 136.95 272.92 138.74 275.27 C 150.97 291.53 162.23 308.48 173.85 325.17 C 174.46 325.94 175.12 326.68 175.81 327.40 C 178.22 325.28 180.77 323.33 183.29 321.35 C 185.64 323.75 185.64 327.31 186.62 330.34 C 190.07 343.45 198.95 354.07 207.13 364.52 C 238.17 338.09 258.76 302.06 287.38 273.32 C 288.84 271.69 291.02 271.18 293.01 270.53 C 299.28 277.37 305.51 284.34 313.07 289.82 C 327.49 270.83 334.95 247.41 350.02 228.88 C 354.58 228.99 358.84 233.07 363.63 231.48 C 366.83 228.62 367.57 224.10 369.27 220.34 C 372.25 213.51 374.31 205.85 379.87 200.57 C 383.45 203.81 386.36 207.70 389.30 211.52 C 398.60 224.07 407.11 237.17 416.16 249.90 C 425.54 263.00 435.21 275.92 445.74 288.13 C 452.17 295.74 458.08 303.80 465.10 310.88 C 467.49 313.22 470.07 315.66 473.40 316.56 C 476.19 317.29 479.18 316.24 481.21 314.26 C 486.17 309.73 488.52 303.26 492.29 297.84 C 495.10 298.28 496.23 301.17 497.94 303.08 C 501.49 307.84 506.34 311.71 509.00 317.10 C 508.30 323.57 506.06 329.78 504.39 336.05 C 504.47 336.58 504.64 337.63 504.72 338.16 C 504.99 339.05 504.91 339.92 504.47 340.79 C 504.54 340.37 504.68 339.53 504.75 339.11 C 501.46 335.99 498.68 332.31 494.82 329.84 C 493.31 332.13 494.36 334.97 494.69 337.46 C 495.54 342.57 498.22 347.09 499.66 352.02 C 499.03 353.32 498.51 354.67 498.11 356.06 C 495.60 353.81 493.90 350.87 491.66 348.39 C 476.20 330.34 454.68 318.80 439.21 300.75 C 425.51 284.73 416.44 264.96 400.53 250.81 C 404.05 272.50 421.29 288.42 427.67 309.08 C 427.01 309.49 425.68 310.31 425.02 310.71 C 416.18 302.60 406.89 294.98 397.34 287.72 C 405.40 319.09 426.05 344.80 444.53 370.62 C 446.08 372.10 444.14 373.32 443.07 374.25 C 417.68 356.05 400.20 329.40 376.25 309.59 C 376.08 320.27 380.51 330.15 384.08 339.99 C 383.26 340.44 382.64 341.76 381.57 341.49 C 370.81 337.80 361.96 330.27 354.11 322.28 C 355.75 334.21 362.18 344.69 368.12 354.92 C 375.56 366.77 383.13 378.54 390.69 390.31 C 402.30 408.18 414.07 426.28 421.08 446.56 C 422.06 448.49 418.57 450.37 417.47 448.38 C 411.73 440.88 404.88 434.12 396.74 429.24 C 382.14 420.22 364.50 417.00 347.53 418.22 C 326.36 419.45 306.23 427.16 287.31 436.27 C 269.75 444.80 252.84 454.61 235.15 462.87 C 220.57 469.70 205.62 475.72 190.49 481.21 C 187.73 482.33 184.82 481.06 182.08 480.54 C 172.75 478.18 163.08 476.04 154.86 470.83 C 175.90 465.50 196.62 458.67 216.42 449.74 C 230.74 443.06 244.39 434.77 256.28 424.31 C 268.27 414.07 277.64 401.13 285.50 387.55 C 293.49 373.64 299.41 358.07 299.47 341.84 C 298.55 342.89 297.81 344.06 297.24 345.34 C 285.87 367.90 267.57 387.10 244.89 398.45 C 243.48 397.63 241.85 395.94 243.26 394.34 C 256.87 376.62 273.24 360.92 284.44 341.41 C 289.28 332.86 293.36 323.62 294.61 313.80 C 291.76 316.32 290.06 319.89 287.25 322.50 C 274.66 338.13 258.67 350.63 242.00 361.63 C 237.66 359.39 240.99 355.11 242.41 352.11 C 224.41 367.71 202.87 378.40 184.32 393.27 C 183.08 394.50 180.99 393.23 180.64 391.81 C 180.71 390.72 181.42 389.82 181.93 388.91 C 185.92 382.61 190.80 376.89 194.37 370.32 C 187.12 364.89 181.53 357.62 177.11 349.79 C 177.48 355.84 179.59 361.62 181.87 367.18 C 182.97 368.78 181.11 369.90 180.04 370.72 C 171.02 362.96 162.66 354.30 156.44 344.10 C 157.76 363.95 166.95 381.95 175.51 399.50 C 177.08 401.43 173.64 404.17 172.30 401.83 C 163.66 390.00 155.61 377.69 148.54 364.87 C 148.21 378.94 150.27 393.06 148.46 407.09 C 147.36 415.95 144.49 424.91 138.66 431.82 C 137.56 433.39 135.98 431.98 134.96 431.15 C 135.51 420.01 133.93 408.77 130.79 398.08 C 118.46 416.29 101.99 431.37 84.06 443.94 C 81.91 443.27 79.74 442.66 77.58 442.03 C 75.67 441.27 73.70 440.65 71.73 440.06 C 66.29 434.87 61.47 429.02 56.72 423.20 C 57.38 422.35 58.04 421.51 58.71 420.67 C 63.62 414.51 68.39 408.13 71.81 401.00 C 65.83 406.11 59.70 411.05 53.14 415.42 C 52.76 415.66 51.99 416.14 51.61 416.37 C 48.21 411.65 44.84 406.88 41.92 401.85 C 41.75 400.24 41.65 398.62 41.58 397.01 C 41.63 394.60 41.83 392.21 41.96 389.82 C 40.67 391.07 39.56 392.50 39.03 394.25 C 38.61 394.18 37.77 394.05 37.34 393.98 C 25.27 373.13 16.49 350.43 10.40 327.13 C -0.37 285.74 -1.99 241.74 7.77 199.99 M 382.28 228.82 C 382.71 230.71 382.94 232.64 382.17 234.48 C 383.82 234.43 385.45 234.69 387.08 234.95 C 385.57 232.86 384.62 230.12 382.28 228.82 M 376.83 234.62 C 378.98 239.88 380.58 245.41 381.28 251.06 C 380.94 251.43 380.26 252.17 379.91 252.54 C 376.01 251.22 372.86 248.40 369.20 246.58 C 369.72 255.72 372.08 264.66 372.14 273.83 C 372.36 275.02 371.36 275.77 370.65 276.55 C 363.91 272.73 358.43 267.16 352.78 261.95 C 352.86 268.29 353.40 274.62 353.24 280.97 C 353.11 282.33 353.50 284.19 351.93 284.85 C 348.54 284.78 345.20 283.97 342.14 282.55 C 349.24 291.81 356.85 300.88 365.37 308.90 C 362.34 299.92 361.43 290.28 361.79 280.85 C 361.67 279.73 363.45 278.88 364.23 279.68 C 372.81 286.35 380.12 294.58 388.84 301.06 C 382.45 287.14 378.38 271.89 378.66 256.50 C 378.50 255.47 379.71 254.49 380.65 254.76 C 384.90 257.58 388.23 261.83 392.93 263.96 C 389.11 256.79 384.71 249.78 382.60 241.86 C 382.00 239.49 381.21 237.05 381.80 234.60 C 380.14 234.55 378.48 234.56 376.83 234.62 M 420.45 259.06 C 420.14 260.42 420.67 261.03 422.05 260.88 C 422.38 259.49 421.85 258.88 420.45 259.06 M 317.28 288.07 C 316.20 288.38 314.98 289.70 315.43 290.88 C 316.81 291.65 319.16 288.61 317.28 288.07 M 135.62 308.99 C 134.38 312.55 135.72 318.00 131.97 320.09 C 129.94 318.06 128.07 315.83 125.62 314.30 C 127.67 324.69 130.26 335.37 128.45 345.99 C 128.35 347.31 127.83 349.24 126.05 348.67 C 123.76 345.74 122.67 341.85 119.55 339.58 C 119.56 349.25 118.40 358.93 116.17 368.34 C 116.13 369.83 113.94 370.43 113.35 368.95 C 112.28 364.53 111.11 360.08 108.94 356.05 C 108.29 355.02 107.99 353.49 106.68 353.12 C 104.61 366.44 103.69 380.15 98.93 392.88 C 95.21 402.59 88.72 410.86 82.49 419.06 C 90.25 414.49 97.76 409.38 104.76 403.69 C 115.17 395.16 124.83 384.42 127.89 370.95 C 128.68 368.78 127.84 365.50 130.39 364.39 C 133.68 367.34 135.65 371.31 137.75 375.11 C 136.59 358.28 132.87 341.72 130.96 324.96 C 130.23 323.64 131.38 322.68 132.41 322.23 C 135.98 325.08 138.16 329.35 141.76 332.07 C 139.50 325.19 137.65 318.15 136.48 310.99 C 136.39 310.23 136.10 309.56 135.62 308.99 M 412.15 331.25 C 411.56 332.66 413.22 335.02 414.76 334.71 C 415.06 333.36 413.65 331.02 412.15 331.25 M 125.10 341.16 C 124.67 342.60 125.15 343.05 126.55 342.51 C 126.97 341.10 126.49 340.65 125.10 341.16 M 367.71 362.47 C 368.53 365.44 370.26 369.42 373.29 370.42 C 371.85 367.54 370.38 364.41 367.71 362.47 M 202.27 374.06 C 200.83 374.79 200.71 375.46 201.92 376.07 C 203.39 375.34 203.50 374.67 202.27 374.06 M 99.23 380.19 C 97.81 380.34 97.22 383.03 98.95 383.16 C 100.32 383.01 100.78 380.33 99.23 380.19 M 108.46 403.25 C 107.24 403.47 105.62 405.96 107.68 406.18 C 109.63 406.56 111.26 402.17 108.46 403.25 M 320.32 417.25 C 320.48 420.50 323.37 415.64 320.32 417.25 M 183.20 467.13 C 180.22 468.56 184.35 470.11 185.47 468.24 C 186.69 466.85 183.97 466.49 183.20 467.13 Z" />
</g>
<g id="#ffffffff">
<path fill="#ffffff" opacity="1.00" d=" M 382.28 228.82 C 384.62 230.12 385.57 232.86 387.08 234.95 C 385.45 234.69 383.82 234.43 382.17 234.48 C 382.94 232.64 382.71 230.71 382.28 228.82 Z" />
<path fill="#ffffff" opacity="1.00" d=" M 376.83 234.62 C 378.48 234.56 380.14 234.55 381.80 234.60 C 381.21 237.05 382.00 239.49 382.60 241.86 C 384.71 249.78 389.11 256.79 392.93 263.96 C 388.23 261.83 384.90 257.58 380.65 254.76 C 379.71 254.49 378.50 255.47 378.66 256.50 C 378.38 271.89 382.45 287.14 388.84 301.06 C 380.12 294.58 372.81 286.35 364.23 279.68 C 363.45 278.88 361.67 279.73 361.79 280.85 C 361.43 290.28 362.34 299.92 365.37 308.90 C 356.85 300.88 349.24 291.81 342.14 282.55 C 345.20 283.97 348.54 284.78 351.93 284.85 C 353.50 284.19 353.11 282.33 353.24 280.97 C 353.40 274.62 352.86 268.29 352.78 261.95 C 358.43 267.16 363.91 272.73 370.65 276.55 C 371.36 275.77 372.36 275.02 372.14 273.83 C 372.08 264.66 369.72 255.72 369.20 246.58 C 372.86 248.40 376.01 251.22 379.91 252.54 C 380.26 252.17 380.94 251.43 381.28 251.06 C 380.58 245.41 378.98 239.88 376.83 234.62 Z" />
<path fill="#ffffff" opacity="1.00" d=" M 400.53 250.81 C 416.44 264.96 425.51 284.73 439.21 300.75 C 454.68 318.80 476.20 330.34 491.66 348.39 C 493.90 350.87 495.60 353.81 498.11 356.06 C 498.51 354.67 499.03 353.32 499.66 352.02 C 498.22 347.09 495.54 342.57 494.69 337.46 C 494.36 334.97 493.31 332.13 494.82 329.84 C 498.68 332.31 501.46 335.99 504.75 339.11 C 504.68 339.53 504.54 340.37 504.47 340.79 C 493.07 373.41 474.27 403.40 449.82 427.81 C 437.45 440.38 423.68 451.53 409.02 461.31 C 370.76 486.29 326.64 503.02 280.99 506.92 C 274.80 508.31 268.40 507.12 262.19 508.32 C 247.74 509.46 233.33 507.63 218.90 507.19 C 208.28 505.13 197.48 503.95 186.94 501.37 C 148.12 492.49 111.20 474.25 81.72 447.33 C 79.65 445.62 77.95 443.08 75.02 442.91 C 75.66 442.69 76.94 442.25 77.58 442.03 C 79.74 442.66 81.91 443.27 84.06 443.94 C 101.99 431.37 118.46 416.29 130.79 398.08 C 133.93 408.77 135.51 420.01 134.96 431.15 C 135.98 431.98 137.56 433.39 138.66 431.82 C 144.49 424.91 147.36 415.95 148.46 407.09 C 150.27 393.06 148.21 378.94 148.54 364.87 C 155.61 377.69 163.66 390.00 172.30 401.83 C 173.64 404.17 177.08 401.43 175.51 399.50 C 166.95 381.95 157.76 363.95 156.44 344.10 C 162.66 354.30 171.02 362.96 180.04 370.72 C 181.11 369.90 182.97 368.78 181.87 367.18 C 179.59 361.62 177.48 355.84 177.11 349.79 C 181.53 357.62 187.12 364.89 194.37 370.32 C 190.80 376.89 185.92 382.61 181.93 388.91 C 181.42 389.82 180.71 390.72 180.64 391.81 C 180.99 393.23 183.08 394.50 184.32 393.27 C 202.87 378.40 224.41 367.71 242.41 352.11 C 240.99 355.11 237.66 359.39 242.00 361.63 C 258.67 350.63 274.66 338.13 287.25 322.50 C 290.06 319.89 291.76 316.32 294.61 313.80 C 293.36 323.62 289.28 332.86 284.44 341.41 C 273.24 360.92 256.87 376.62 243.26 394.34 C 241.85 395.94 243.48 397.63 244.89 398.45 C 267.57 387.10 285.87 367.90 297.24 345.34 C 297.81 344.06 298.55 342.89 299.47 341.84 C 299.41 358.07 293.49 373.64 285.50 387.55 C 277.64 401.13 268.27 414.07 256.28 424.31 C 244.39 434.77 230.74 443.06 216.42 449.74 C 196.62 458.67 175.90 465.50 154.86 470.83 C 163.08 476.04 172.75 478.18 182.08 480.54 C 184.82 481.06 187.73 482.33 190.49 481.21 C 205.62 475.72 220.57 469.70 235.15 462.87 C 252.84 454.61 269.75 444.80 287.31 436.27 C 306.23 427.16 326.36 419.45 347.53 418.22 C 364.50 417.00 382.14 420.22 396.74 429.24 C 404.88 434.12 411.73 440.88 417.47 448.38 C 418.57 450.37 422.06 448.49 421.08 446.56 C 414.07 426.28 402.30 408.18 390.69 390.31 C 383.13 378.54 375.56 366.77 368.12 354.92 C 362.18 344.69 355.75 334.21 354.11 322.28 C 361.96 330.27 370.81 337.80 381.57 341.49 C 382.64 341.76 383.26 340.44 384.08 339.99 C 380.51 330.15 376.08 320.27 376.25 309.59 C 400.20 329.40 417.68 356.05 443.07 374.25 C 444.14 373.32 446.08 372.10 444.53 370.62 C 426.05 344.80 405.40 319.09 397.34 287.72 C 406.89 294.98 416.18 302.60 425.02 310.71 C 425.68 310.31 427.01 309.49 427.67 309.08 C 421.29 288.42 404.05 272.50 400.53 250.81 Z" />
<path fill="#ffffff" opacity="1.00" d=" M 135.62 308.99 C 136.10 309.56 136.39 310.23 136.48 310.99 C 137.65 318.15 139.50 325.19 141.76 332.07 C 138.16 329.35 135.98 325.08 132.41 322.23 C 131.38 322.68 130.23 323.64 130.96 324.96 C 132.87 341.72 136.59 358.28 137.75 375.11 C 135.65 371.31 133.68 367.34 130.39 364.39 C 127.84 365.50 128.68 368.78 127.89 370.95 C 124.83 384.42 115.17 395.16 104.76 403.69 C 97.76 409.38 90.25 414.49 82.49 419.06 C 88.72 410.86 95.21 402.59 98.93 392.88 C 103.69 380.15 104.61 366.44 106.68 353.12 C 107.99 353.49 108.29 355.02 108.94 356.05 C 111.11 360.08 112.28 364.53 113.35 368.95 C 113.94 370.43 116.13 369.83 116.17 368.34 C 118.40 358.93 119.56 349.25 119.55 339.58 C 122.67 341.85 123.76 345.74 126.05 348.67 C 127.83 349.24 128.35 347.31 128.45 345.99 C 130.26 335.37 127.67 324.69 125.62 314.30 C 128.07 315.83 129.94 318.06 131.97 320.09 C 135.72 318.00 134.38 312.55 135.62 308.99 Z" />
<path fill="#ffffff" opacity="1.00" d=" M 39.03 394.25 C 39.56 392.50 40.67 391.07 41.96 389.82 C 41.83 392.21 41.63 394.60 41.58 397.01 C 40.43 396.38 39.72 395.32 39.03 394.25 Z" />
<path fill="#ffffff" opacity="1.00" d=" M 53.14 415.42 C 59.70 411.05 65.83 406.11 71.81 401.00 C 68.39 408.13 63.62 414.51 58.71 420.67 C 55.72 421.19 54.86 417.21 53.14 415.42 Z" />
</g>
</svg>
